<?xml version="1.0" encoding="UTF-8"?>
<svg id="Capa_1" data-name="Capa 1" xmlns="http://www.w3.org/2000/svg" viewBox="0 0 447.85 96.27">
  <defs>
    <style>
      .cls-1 {
        fill: #fff;
      }

      .cls-2 {
        fill: #8fef70;
      }

      .cls-3 {
        fill: #131549;
      }
    </style>
  </defs>
  <path class="cls-1" d="M260.32,77.53l11.41-51.22c.45-2.02,2.32-3.46,4.48-3.46h167.06c2.85,0,5.01,2.46,4.51,5.13l-9.6,51.22c-.39,2.08-2.29,3.6-4.51,3.6h-168.87c-2.91,0-5.08-2.56-4.48-5.27Z"/>
  <g>
    <path class="cls-2" d="M1.16,58.11c.9-4.26,1.84-8.5,2.74-12.75,1.44-6.79,5.52-12.98,10.87-17.44,5.38-4.49,12.15-7.26,19-7.26h46.53c-.88,4.25-1.76,8.5-2.69,12.75H31.08c-6.61,0-13.1,5.38-14.5,11.95-.91,4.26-1.84,8.5-2.74,12.75-1.39,6.54,2.84,11.9,9.4,11.94h31.78c3.82,0,7.6-3.12,8.42-6.94.36-1.66.73-3.33,1.08-5h-26.84c.93-4.25,1.81-8.5,2.74-12.75h39.52c-.93,4.25-1.81,8.5-2.74,12.75-.34,1.67-.67,3.34-1.03,5-1.06,4.94-3.82,9.46-7.59,12.93-4.51,4.14-10.38,6.76-16.26,6.76h-31.83c-8.03-.03-14.4-3.97-17.58-10.01-2.2-4.11-2.92-9.2-1.76-14.68Z"/>
    <path class="cls-2" d="M151.89,82.8c-1.72-7.21-3.44-14.42-5.11-21.63-1.67-7.21-3.43-14.41-5.11-21.63-.99-4.25-5.26-6.13-9.65-6.13s-9.55,1.87-12.38,6.13c-4.77,7.21-9.57,14.41-14.33,21.63-4.75,7.2-9.51,14.42-14.24,21.63h-13.9c5.21-8.07,10.67-16.15,15.96-24.23,5.27-8.06,10.73-16.14,16.05-24.24,5.52-8.4,15.29-13.67,25.51-13.67s17.85,5.24,19.83,13.67c1.89,8.06,3.75,16.16,5.64,24.24,1.89,8.07,3.77,16.16,5.73,24.23h-14Z"/>
    <path class="cls-2" d="M221.11,69.12c.88.65,2.2.98,3.38,1.05.2.01.44.02.64.02.15,0,.34,0,.54-.02,1.32-.07,2.69-.4,3.92-1.05.93-.48,1.76-1.15,2.3-2.03,2.99-5.75,6.07-11.5,9.06-17.25s6.07-11.5,9.11-17.25c.15-.29.29-.58.49-.86,4.16-7.05,12.29-11.06,19.64-10.21,3.92.47,7.22,2.29,9.26,5.05,2.02,2.73,2.89,6.41,2.01,10.52l-4.85,22.86c-1.62,7.62-3.23,15.24-4.85,22.86h-12.83c1.62-7.62,3.23-15.24,4.85-22.86,1.62-7.62,3.23-15.24,4.85-22.86.39-1.76-.98-2.84-2.55-3.03-1.62-.19-3.58.5-4.51,2.11-.05.05-.05.11-.15.16-3.09,5.79-6.12,11.59-9.16,17.37-3.04,5.79-6.07,11.57-9.11,17.36-.05.04-.05.07-.05.11-2.11,3.7-5.39,6.72-9.21,8.75-3.18,1.71-6.66,2.65-10.04,2.85-.49.02-.98.04-1.42.04s-.88-.01-1.37-.04c-3.28-.2-6.37-1.14-8.87-2.86-2.99-2.04-5.04-5.11-5.48-8.87v-.07c-.64-5.77-1.22-11.54-1.81-17.31-.59-5.77-1.18-11.55-1.76-17.32.05-.04.05-.08,0-.12-.25-1.63-1.91-2.34-3.62-2.15-1.67.19-3.48,1.27-3.87,3.03-1.62,7.62-3.23,15.24-4.85,22.86-1.62,7.62-3.23,15.24-4.85,22.86h-12.78c1.62-7.62,3.23-15.24,4.85-22.86,1.62-7.62,3.23-15.24,4.85-22.86.88-4.11,3.24-7.76,6.46-10.52,3.19-2.74,7.25-4.59,11.41-5.05,7.79-.86,14.3,3.25,15.33,10.43.05.21.1.43.1.65.59,5.74,1.17,11.49,1.76,17.23.59,5.74,1.18,11.49,1.76,17.23.1.9.69,1.58,1.42,2.07Z"/>
  </g>
  <g>
    <path class="cls-3" d="M290.28,65.56h30.55c1.92,0,3.8-1.56,4.22-3.47.42-1.91-.81-3.47-2.72-3.47h-30.55c.03-.13.06-.27.08-.41.47-2.2.92-4.4,1.39-6.6.03-.13.06-.27.08-.41h30.55c1.92,0,3.81-1.56,4.22-3.47.42-1.91-.8-3.47-2.72-3.47h-30.55c.53-2.47,1.06-4.94,1.56-7.41h30.75c2.92,0,5.35,1.21,6.86,3.14,1.52,1.94,2.2,4.6,1.58,7.54-.6,2.86-2.31,5.46-4.55,7.38,1.42,1.92,1.99,4.52,1.39,7.38-.62,2.94-2.44,5.62-4.75,7.54-2.33,1.94-5.28,3.14-8.19,3.14h-30.75c.5-2.47,1.03-4.94,1.56-7.41Z"/>
    <path class="cls-3" d="M362.87,65.56h16.39c-.53,2.47-1.06,4.94-1.56,7.41h-27.78c-3.97,0-7.21-1.62-9.25-4.22-2.05-2.61-2.91-6.19-2.05-10.14.53-2.47,1.02-4.94,1.55-7.41.85-3.95,3.23-7.53,6.39-10.13,3.14-2.59,7.05-4.22,11.03-4.22h27.78c-.5,2.47-1.03,4.94-1.55,7.41h-27.78c-3.83,0-7.62,3.12-8.44,6.94-.53,2.47-1.03,4.95-1.55,7.41-.81,3.82,1.61,6.94,5.44,6.94h11.39ZM382.31,51.21h-27.3c-.03.14-.06.27-.08.41-.47,2.2-.92,4.4-1.39,6.6-.03.14-.06.27-.08.41h27.3c.5-2.47,1.03-4.94,1.55-7.42Z"/>
    <path class="cls-3" d="M390.43,44.27c.54-2.47,1.05-4.94,1.56-7.41h43.9c-.51,2.47-1.03,4.94-1.56,7.41h-18.24c-1.03,4.79-2.04,9.57-3.06,14.36-1.02,4.78-2.03,9.57-3.04,14.35h-7.43c1.03-4.78,2.04-9.57,3.06-14.35,1.02-4.78,2.03-9.57,3.04-14.36h-18.22Z"/>
  </g>
</svg>